<mxfile host="app.diagrams.net" modified="2022-02-09T07:44:25.512Z" agent="5.0 (Windows NT 10.0; Win64; x64) AppleWebKit/537.36 (KHTML, like Gecko) Chrome/90.0.4430.212 Safari/537.36" etag="w19FrWnk6DyjkHg7j6Rn" version="16.2.7" type="github">
  <diagram id="zlnxZFfyot4iuMIVfW7e" name="第 1 页">
    <mxGraphModel dx="1422" dy="772" grid="1" gridSize="10" guides="1" tooltips="1" connect="1" arrows="1" fold="1" page="1" pageScale="1" pageWidth="827" pageHeight="1169" math="0" shadow="0">
      <root>
        <mxCell id="0" />
        <mxCell id="1" parent="0" />
        <mxCell id="TgMJA-hClHWn-ez-BoSx-8" style="edgeStyle=orthogonalEdgeStyle;rounded=0;orthogonalLoop=1;jettySize=auto;html=1;exitX=0.5;exitY=1;exitDx=0;exitDy=0;" parent="1" source="TgMJA-hClHWn-ez-BoSx-4" target="TgMJA-hClHWn-ez-BoSx-6" edge="1">
          <mxGeometry relative="1" as="geometry" />
        </mxCell>
        <mxCell id="TgMJA-hClHWn-ez-BoSx-4" value="&lt;p class=&quot;MsoNormal&quot; align=&quot;center&quot;&gt;&lt;font style=&quot;font-size: 12px&quot;&gt;需求&lt;/font&gt;&lt;span style=&quot;font-family: &amp;#34;calibri&amp;#34; ; font-size: 10.5000pt&quot;&gt;&lt;/span&gt;&lt;/p&gt;" style="ellipse;whiteSpace=wrap;html=1;" parent="1" vertex="1">
          <mxGeometry x="340" y="140" width="110" height="40" as="geometry" />
        </mxCell>
        <mxCell id="TgMJA-hClHWn-ez-BoSx-5" value="&lt;p class=&quot;MsoNormal&quot;&gt;&lt;span style=&quot;font-size: 9.0000pt&quot;&gt;&lt;font face=&quot;Calibri&quot;&gt;Java&lt;/font&gt;&lt;font face=&quot;宋体&quot;&gt;后端开发工作流程&lt;/font&gt;&lt;/span&gt;&lt;span style=&quot;font-size: 9.0000pt&quot;&gt;&lt;/span&gt;&lt;/p&gt;" style="text;html=1;strokeColor=#d79b00;fillColor=#ffe6cc;align=center;verticalAlign=middle;whiteSpace=wrap;rounded=0;" parent="1" vertex="1">
          <mxGeometry x="190" y="110" width="130" height="30" as="geometry" />
        </mxCell>
        <mxCell id="TgMJA-hClHWn-ez-BoSx-9" style="edgeStyle=orthogonalEdgeStyle;rounded=0;orthogonalLoop=1;jettySize=auto;html=1;exitX=1;exitY=0.5;exitDx=0;exitDy=0;entryX=1;entryY=0.5;entryDx=0;entryDy=0;" parent="1" source="TgMJA-hClHWn-ez-BoSx-6" target="TgMJA-hClHWn-ez-BoSx-4" edge="1">
          <mxGeometry relative="1" as="geometry">
            <Array as="points">
              <mxPoint x="520" y="235" />
              <mxPoint x="520" y="160" />
            </Array>
          </mxGeometry>
        </mxCell>
        <mxCell id="TgMJA-hClHWn-ez-BoSx-22" style="edgeStyle=orthogonalEdgeStyle;rounded=0;orthogonalLoop=1;jettySize=auto;html=1;exitX=0.5;exitY=1;exitDx=0;exitDy=0;entryX=0.5;entryY=0;entryDx=0;entryDy=0;fontSize=12;fontColor=#000000;" parent="1" source="TgMJA-hClHWn-ez-BoSx-6" target="TgMJA-hClHWn-ez-BoSx-16" edge="1">
          <mxGeometry relative="1" as="geometry" />
        </mxCell>
        <mxCell id="TgMJA-hClHWn-ez-BoSx-6" value="&lt;p class=&quot;MsoNormal&quot; style=&quot;text-align: left&quot;&gt;&lt;span style=&quot;font-size: 7.5000pt&quot;&gt;&lt;font face=&quot;宋体&quot;&gt;&amp;nbsp; &amp;nbsp; &amp;nbsp;&amp;nbsp;&lt;/font&gt;&lt;/span&gt;&lt;/p&gt;&lt;span style=&quot;font-size: 10px ; text-align: left&quot;&gt;需求分析评审&lt;/span&gt;&lt;p class=&quot;MsoNormal&quot; style=&quot;text-align: left&quot;&gt;&lt;span style=&quot;font-size: 7.5000pt&quot;&gt;&lt;font face=&quot;宋体&quot;&gt;&amp;nbsp; &amp;nbsp;&lt;/font&gt;&lt;/span&gt;&lt;span style=&quot;font-size: 7.5pt&quot;&gt;&amp;nbsp; &amp;nbsp; &amp;nbsp; &amp;nbsp; &amp;nbsp; &amp;nbsp; &amp;nbsp; &amp;nbsp; &amp;nbsp; &amp;nbsp; &amp;nbsp;&lt;/span&gt;&lt;/p&gt;&lt;p class=&quot;MsoNormal&quot; style=&quot;text-align: left&quot;&gt;&lt;span style=&quot;font-family: &amp;#34;calibri&amp;#34; ; font-size: 7.5000pt&quot;&gt;&lt;/span&gt;&lt;/p&gt;" style="rhombus;whiteSpace=wrap;html=1;" parent="1" vertex="1">
          <mxGeometry x="340" y="210" width="110" height="50" as="geometry" />
        </mxCell>
        <mxCell id="TgMJA-hClHWn-ez-BoSx-10" value="N" style="text;html=1;strokeColor=none;fillColor=none;align=center;verticalAlign=middle;whiteSpace=wrap;rounded=0;fontColor=#FF0000;" parent="1" vertex="1">
          <mxGeometry x="520" y="180" width="30" height="30" as="geometry" />
        </mxCell>
        <mxCell id="TgMJA-hClHWn-ez-BoSx-24" style="edgeStyle=orthogonalEdgeStyle;rounded=0;orthogonalLoop=1;jettySize=auto;html=1;exitX=1;exitY=0.5;exitDx=0;exitDy=0;entryX=1;entryY=0.5;entryDx=0;entryDy=0;fontSize=12;fontColor=#00FF00;" parent="1" source="TgMJA-hClHWn-ez-BoSx-15" target="TgMJA-hClHWn-ez-BoSx-34" edge="1">
          <mxGeometry relative="1" as="geometry" />
        </mxCell>
        <mxCell id="TgMJA-hClHWn-ez-BoSx-29" style="edgeStyle=orthogonalEdgeStyle;rounded=0;orthogonalLoop=1;jettySize=auto;html=1;exitX=0.5;exitY=1;exitDx=0;exitDy=0;entryX=0.5;entryY=0;entryDx=0;entryDy=0;fontSize=12;fontColor=#00FF00;" parent="1" source="TgMJA-hClHWn-ez-BoSx-15" target="TgMJA-hClHWn-ez-BoSx-21" edge="1">
          <mxGeometry relative="1" as="geometry" />
        </mxCell>
        <mxCell id="TgMJA-hClHWn-ez-BoSx-15" value="提交测试" style="rhombus;whiteSpace=wrap;html=1;fontColor=#000000;" parent="1" vertex="1">
          <mxGeometry x="340" y="500" width="110" height="50" as="geometry" />
        </mxCell>
        <mxCell id="TgMJA-hClHWn-ez-BoSx-16" value="开发" style="swimlane;fontStyle=0;childLayout=stackLayout;horizontal=1;startSize=30;horizontalStack=0;resizeParent=1;resizeParentMax=0;resizeLast=0;collapsible=1;marginBottom=0;fontColor=#000000;" parent="1" vertex="1">
          <mxGeometry x="340" y="290" width="110" height="180" as="geometry" />
        </mxCell>
        <mxCell id="TgMJA-hClHWn-ez-BoSx-17" value="确定项目开发人员&#xa;评估开发时间" style="text;strokeColor=none;fillColor=none;align=left;verticalAlign=middle;spacingLeft=4;spacingRight=4;overflow=hidden;points=[[0,0.5],[1,0.5]];portConstraint=eastwest;rotatable=0;fontColor=#000000;" parent="TgMJA-hClHWn-ez-BoSx-16" vertex="1">
          <mxGeometry y="30" width="110" height="30" as="geometry" />
        </mxCell>
        <mxCell id="TgMJA-hClHWn-ez-BoSx-18" value="设计数据库表" style="text;strokeColor=none;fillColor=none;align=left;verticalAlign=middle;spacingLeft=4;spacingRight=4;overflow=hidden;points=[[0,0.5],[1,0.5]];portConstraint=eastwest;rotatable=0;fontColor=#000000;" parent="TgMJA-hClHWn-ez-BoSx-16" vertex="1">
          <mxGeometry y="60" width="110" height="30" as="geometry" />
        </mxCell>
        <mxCell id="TgMJA-hClHWn-ez-BoSx-20" value="编写代码" style="text;strokeColor=none;fillColor=none;align=left;verticalAlign=middle;spacingLeft=4;spacingRight=4;overflow=hidden;points=[[0,0.5],[1,0.5]];portConstraint=eastwest;rotatable=0;fontColor=#000000;" parent="TgMJA-hClHWn-ez-BoSx-16" vertex="1">
          <mxGeometry y="90" width="110" height="30" as="geometry" />
        </mxCell>
        <mxCell id="TgMJA-hClHWn-ez-BoSx-33" value="编写接口文档" style="text;strokeColor=none;fillColor=none;align=left;verticalAlign=middle;spacingLeft=4;spacingRight=4;overflow=hidden;points=[[0,0.5],[1,0.5]];portConstraint=eastwest;rotatable=0;fontColor=#000000;" parent="TgMJA-hClHWn-ez-BoSx-16" vertex="1">
          <mxGeometry y="120" width="110" height="30" as="geometry" />
        </mxCell>
        <mxCell id="TgMJA-hClHWn-ez-BoSx-34" value="修改BUG" style="text;strokeColor=none;fillColor=none;align=left;verticalAlign=middle;spacingLeft=4;spacingRight=4;overflow=hidden;points=[[0,0.5],[1,0.5]];portConstraint=eastwest;rotatable=0;fontColor=#000000;" parent="TgMJA-hClHWn-ez-BoSx-16" vertex="1">
          <mxGeometry y="150" width="110" height="30" as="geometry" />
        </mxCell>
        <mxCell id="TgMJA-hClHWn-ez-BoSx-21" value="结束" style="ellipse;whiteSpace=wrap;html=1;fontColor=#000000;" parent="1" vertex="1">
          <mxGeometry x="340" y="585" width="110" height="40" as="geometry" />
        </mxCell>
        <mxCell id="TgMJA-hClHWn-ez-BoSx-23" value="Y" style="text;html=1;strokeColor=none;fillColor=none;align=center;verticalAlign=middle;whiteSpace=wrap;rounded=0;fontSize=12;fontColor=#00FF00;" parent="1" vertex="1">
          <mxGeometry x="380" y="260" width="60" height="30" as="geometry" />
        </mxCell>
        <mxCell id="TgMJA-hClHWn-ez-BoSx-26" value="未通过" style="text;html=1;strokeColor=none;fillColor=none;align=center;verticalAlign=middle;whiteSpace=wrap;rounded=0;fontSize=12;fontColor=#FF0000;" parent="1" vertex="1">
          <mxGeometry x="470" y="480" width="60" height="30" as="geometry" />
        </mxCell>
        <mxCell id="TgMJA-hClHWn-ez-BoSx-27" value="通过" style="text;html=1;strokeColor=none;fillColor=none;align=center;verticalAlign=middle;whiteSpace=wrap;rounded=0;fontSize=12;fontColor=#00FF00;labelBackgroundColor=default;" parent="1" vertex="1">
          <mxGeometry x="384" y="550" width="60" height="30" as="geometry" />
        </mxCell>
        <mxCell id="TgMJA-hClHWn-ez-BoSx-30" value="" style="endArrow=classic;html=1;rounded=0;fontSize=12;fontColor=#00FF00;entryX=0.5;entryY=0;entryDx=0;entryDy=0;" parent="1" target="TgMJA-hClHWn-ez-BoSx-15" edge="1">
          <mxGeometry width="50" height="50" relative="1" as="geometry">
            <mxPoint x="395" y="470" as="sourcePoint" />
            <mxPoint x="394.58" y="450" as="targetPoint" />
          </mxGeometry>
        </mxCell>
      </root>
    </mxGraphModel>
  </diagram>
</mxfile>
